<svg xmlns="http://www.w3.org/2000/svg" viewBox="0 0 96 96" width="96" height="96"><defs><linearGradient id="bg" x1="0" y1="0" x2="0" y2="1"><stop offset="0" stop-color="#0E3448"></stop><stop offset="1" stop-color="#071520"></stop></linearGradient><linearGradient id="gl" x1="0" y1="0" x2="1" y2="1"><stop offset="0" stop-color="#EAF7F3"></stop><stop offset="1" stop-color="#8FBFB9"></stop></linearGradient></defs><rect width="96" height="96" rx="24" fill="url(#bg)"></rect><path d="M6 70c9-6 16-6 25 0s16 6 25 0 15-6 20-1" stroke="#2E7F86" stroke-width="2.4" fill="none" opacity=".65" stroke-linecap="round"></path><rect x="42" y="16" width="12" height="12" rx="3" fill="#C79E5E"></rect><path d="M42 28h12l4.6 9.2c1.3 2.6 2 5.4 2 8.2V64a8 8 0 0 1-8 8H43.4a8 8 0 0 1-8-8V45.4c0-2.8.7-5.6 2-8.2L42 28Z" fill="url(#gl)" opacity=".92"></path><rect x="43" y="40" width="10" height="22" rx="5" fill="#F3E7CB" opacity=".85"></rect></svg>